<?xml version="1.0" encoding="utf-8"?>
<!-- Generator: Adobe Illustrator 15.0.0, SVG Export Plug-In . SVG Version: 6.00 Build 0)  -->
<!DOCTYPE svg PUBLIC "-//W3C//DTD SVG 1.1//EN" "http://www.w3.org/Graphics/SVG/1.1/DTD/svg11.dtd">
<svg version="1.1" id="Layer_1" xmlns="http://www.w3.org/2000/svg" xmlns:xlink="http://www.w3.org/1999/xlink" x="0px" y="0px"
	 width="27px" height="27px" viewBox="0 0 27 27" enable-background="new 0 0 27 27" xml:space="preserve">
<path fill="#FFFFFF" d="M22.85,9.715c-0.574-1.413,0.973-4.262-0.084-5.334c-1.054-1.073-3.927,0.43-5.332-0.168
	c-1.355-0.572-2.265-3.7-3.829-3.713c-1.565-0.012-2.524,3.1-3.888,3.651C8.302,4.727,5.453,3.179,4.382,4.234
	C3.311,5.289,4.811,8.162,4.215,9.565c-0.574,1.357-3.702,2.266-3.715,3.83c-0.012,1.563,3.101,2.524,3.652,3.886
	c0.575,1.416-0.971,4.266,0.082,5.338c1.054,1.072,3.927-0.432,5.333,0.166c1.355,0.574,2.264,3.701,3.829,3.715
	c1.563,0.012,2.522-3.102,3.889-3.654c1.413-0.574,4.264,0.975,5.335-0.082c1.069-1.055-0.431-3.926,0.167-5.332
	c0.572-1.354,3.701-2.264,3.713-3.828C26.514,12.04,23.4,11.08,22.85,9.715z M14.716,20.012l-0.011,1.262
	C14.701,21.686,14.367,22,13.958,22h-0.006l-1.13,0.006c-0.198-0.002-0.389-0.064-0.526-0.207c-0.14-0.141-0.217-0.332-0.215-0.529
	l0.009-1.121c-0.923-0.129-1.823-0.455-2.421-0.891c-0.271-0.195-0.377-0.547-0.263-0.861l0.44-1.196
	c0.08-0.216,0.254-0.384,0.473-0.453c0.221-0.07,0.458-0.037,0.648,0.092c0.603,0.408,1.411,0.656,2.16,0.662
	c0.649,0,1.389-0.262,1.395-0.996c0.002-0.391-0.114-0.856-1.547-1.45c-1.684-0.678-3.41-1.662-3.393-3.821
	c0.013-1.669,1.065-2.973,2.733-3.458l0.009-1.215c0.002-0.199,0.082-0.389,0.224-0.528c0.141-0.139,0.315-0.23,0.529-0.214
	l1.111,0.008c0.198,0.002,0.39,0.082,0.526,0.223c0.14,0.142,0.218,0.332,0.216,0.532l-0.01,1.051
	c0.725,0.108,1.369,0.334,1.955,0.684c0.312,0.186,0.445,0.572,0.312,0.912l-0.457,1.179c-0.078,0.205-0.244,0.364-0.449,0.437
	c-0.207,0.07-0.436,0.05-0.623-0.06c-0.289-0.168-0.891-0.519-1.884-0.526c-0.729,0-1.152,0.293-1.156,0.785
	c-0.003,0.376,0.116,0.675,1.748,1.364c1.501,0.627,3.227,1.645,3.208,3.994C17.562,18.119,16.438,19.508,14.716,20.012z"/>
</svg>
