<?xml version="1.0" encoding="utf-8"?>
<!-- Generator: Adobe Illustrator 15.0.0, SVG Export Plug-In . SVG Version: 6.00 Build 0)  -->
<!DOCTYPE svg PUBLIC "-//W3C//DTD SVG 1.1//EN" "http://www.w3.org/Graphics/SVG/1.1/DTD/svg11.dtd">
<svg version="1.1" id="Layer_1" xmlns="http://www.w3.org/2000/svg" xmlns:xlink="http://www.w3.org/1999/xlink" x="0px" y="0px"
	 width="27px" height="27px" viewBox="0 0 27 27" enable-background="new 0 0 27 27" xml:space="preserve">
<path fill="#FFFFFF" d="M13.481,0.519c-7.18,0-13,5.82-13,13s5.82,13,13,13s13-5.82,13-13C26.48,6.338,20.661,0.519,13.481,0.519z
	 M15,20.041V21.4c0,0.443-0.52,1.6-0.961,1.6h-1.211C12.386,23,12,21.844,12,21.4v-1.196c-1-0.134-1.944-0.474-2.589-0.937
	c-0.292-0.207-0.372-0.584-0.25-0.92l0.447-1.287c0.083-0.231,0.261-0.414,0.495-0.49c0.234-0.077,0.483-0.043,0.688,0.094
	c0.649,0.434,1.506,0.691,2.311,0.691c0.902,0,1.466-0.424,1.466-1.082c0-0.42-0.161-0.916-1.701-1.541
	c-1.81-0.711-3.685-1.75-3.685-4.066C9.181,8.878,11,7.471,12,6.937V5.634C12,5.191,12.521,4,12.963,4h1.189
	C14.596,4,15,5.191,15,5.634v1.13c1,0.109,1.445,0.345,2.078,0.715c0.336,0.198,0.434,0.609,0.295,0.975l-0.466,1.269
	c-0.083,0.219-0.253,0.391-0.474,0.47c-0.222,0.078-0.461,0.058-0.664-0.059c-0.312-0.178-0.959-0.547-2.021-0.547
	c-0.773,0-1.234,0.317-1.234,0.851c0,0.404,0.132,0.722,1.886,1.449c1.615,0.657,3.554,1.738,3.554,4.255
	C17.955,17.984,16,19.482,15,20.041z"/>
</svg>
