<?xml version="1.0" encoding="utf-8"?>
<!-- Generator: Adobe Illustrator 15.0.0, SVG Export Plug-In . SVG Version: 6.00 Build 0)  -->
<!DOCTYPE svg PUBLIC "-//W3C//DTD SVG 1.1//EN" "http://www.w3.org/Graphics/SVG/1.1/DTD/svg11.dtd">
<svg version="1.1" id="Layer_1" xmlns="http://www.w3.org/2000/svg" xmlns:xlink="http://www.w3.org/1999/xlink" x="0px" y="0px"
	 width="44px" height="44px" viewBox="0 0 44 44" enable-background="new 0 0 44 44" xml:space="preserve">
<g id="Layer_2" display="none">
	<rect display="inline" fill="none" width="44" height="44"/>
</g>
<g id="Layer_5" display="none">
	<g display="inline">
		<g>
			<path fill="#A0A2AB" d="M17.61,22.058c0,2.422,1.966,4.387,4.388,4.387c2.424,0,4.389-1.965,4.389-4.387
				c0-2.424-1.965-4.389-4.389-4.389C19.576,17.669,17.61,19.634,17.61,22.058"/>
			<path fill="#A0A2AB" d="M38.573,24.939c0.712-0.305,1.295-1.188,1.295-1.959v-1.961c0-0.774-0.583-1.657-1.295-1.959
				l-2.179-0.929c-0.711-0.303-1.398-0.825-1.526-1.161c-0.127-0.336-0.287-1.775,0.002-2.493l0.888-2.208
				c0.289-0.718,0.077-1.754-0.47-2.301l-1.386-1.39c-0.549-0.547-1.584-0.76-2.303-0.47l-2.238,0.901
				c-0.719,0.29-1.563,0.408-1.881,0.265c-0.313-0.146-1.424-1.049-1.729-1.761l-0.944-2.217C24.503,4.583,23.622,4,22.85,4h-1.964
				c-0.773,0-1.656,0.583-1.959,1.295l-0.944,2.216c-0.302,0.712-0.817,1.396-1.145,1.521C16.511,9.156,15.09,9.3,14.372,9.01
				l-2.235-0.9c-0.72-0.288-1.754-0.077-2.304,0.47L8.445,9.967c-0.547,0.547-0.758,1.583-0.47,2.301l0.887,2.205
				c0.29,0.718,0.404,1.573,0.254,1.896c-0.149,0.323-1.067,1.462-1.779,1.765L5.165,19.06c-0.712,0.304-1.295,1.185-1.295,1.959
				L3.868,22.98c0,0.772,0.583,1.655,1.295,1.959l2.127,0.91c0.713,0.303,1.401,0.84,1.534,1.19
				c0.131,0.351,0.306,1.832,0.016,2.551l-0.861,2.144c-0.29,0.718-0.078,1.755,0.47,2.302l1.387,1.387
				c0.548,0.55,1.583,0.761,2.302,0.472l2.111-0.851c0.718-0.289,1.589-0.394,1.938-0.229c0.349,0.162,1.552,1.099,1.855,1.81
				l0.887,2.084c0.303,0.71,1.185,1.292,1.96,1.292h1.96c0.773,0,1.654-0.582,1.959-1.295l0.891-2.084
				c0.304-0.711,0.847-1.408,1.208-1.541c0.36-0.135,1.864-0.326,2.584-0.039l2.112,0.85c0.717,0.289,1.754,0.076,2.301-0.471
				l1.387-1.385c0.548-0.547,0.759-1.584,0.471-2.301l-0.865-2.15c-0.289-0.719-0.396-1.582-0.242-1.92s1.078-1.514,1.789-1.816
				L38.573,24.939z M29.825,22.058c0,4.396-3.563,7.958-7.959,7.958c-4.394,0-7.959-3.562-7.959-7.958
				c0-4.397,3.565-7.959,7.959-7.959C26.262,14.099,29.825,17.661,29.825,22.058"/>
		</g>
	</g>
	<g display="inline">
		<path fill="#7388A3" d="M17.61,22.058c0,2.422,1.966,4.387,4.388,4.387c2.424,0,4.389-1.965,4.389-4.387
			c0-2.424-1.965-4.389-4.389-4.389C19.576,17.669,17.61,19.634,17.61,22.058"/>
		<path fill="#7388A3" d="M38.573,24.939c0.712-0.305,1.295-1.188,1.295-1.959v-1.961c0-0.774-0.583-1.657-1.295-1.959l-2.179-0.929
			c-0.711-0.303-1.398-0.825-1.526-1.161c-0.127-0.336-0.287-1.775,0.002-2.493l0.888-2.208c0.289-0.718,0.077-1.754-0.47-2.301
			l-1.386-1.39c-0.549-0.547-1.584-0.76-2.303-0.47l-2.238,0.901c-0.719,0.29-1.563,0.408-1.881,0.265
			c-0.313-0.146-1.424-1.049-1.729-1.761l-0.944-2.217C24.503,4.583,23.622,4,22.85,4h-1.964c-0.773,0-1.656,0.583-1.959,1.295
			l-0.944,2.216c-0.302,0.712-0.817,1.396-1.145,1.521C16.511,9.156,15.09,9.3,14.372,9.01l-2.235-0.9
			c-0.72-0.288-1.754-0.077-2.304,0.47L8.445,9.967c-0.547,0.547-0.758,1.583-0.47,2.301l0.887,2.205
			c0.29,0.718,0.404,1.573,0.254,1.896c-0.149,0.323-1.067,1.462-1.779,1.765L5.165,19.06c-0.712,0.304-1.295,1.185-1.295,1.959
			L3.868,22.98c0,0.772,0.583,1.655,1.295,1.959l2.127,0.91c0.713,0.303,1.401,0.84,1.534,1.19c0.131,0.351,0.306,1.832,0.016,2.551
			l-0.861,2.144c-0.29,0.718-0.078,1.755,0.47,2.302l1.387,1.387c0.548,0.55,1.583,0.761,2.302,0.472l2.111-0.851
			c0.718-0.289,1.589-0.394,1.938-0.229c0.349,0.162,1.552,1.099,1.855,1.81l0.887,2.084c0.303,0.71,1.185,1.292,1.96,1.292h1.96
			c0.773,0,1.654-0.582,1.959-1.295l0.891-2.084c0.304-0.711,0.847-1.408,1.208-1.541c0.36-0.135,1.864-0.326,2.584-0.039
			l2.112,0.85c0.717,0.289,1.754,0.076,2.301-0.471l1.387-1.385c0.548-0.547,0.759-1.584,0.471-2.301l-0.865-2.15
			c-0.289-0.719-0.396-1.582-0.242-1.92s1.078-1.514,1.789-1.816L38.573,24.939z M29.825,22.058c0,4.396-3.563,7.958-7.959,7.958
			c-4.394,0-7.959-3.562-7.959-7.958c0-4.397,3.565-7.959,7.959-7.959C26.262,14.099,29.825,17.661,29.825,22.058"/>
	</g>
</g>
<g id="Layer_3" display="none">
	<g display="inline">
		<path fill="#A0A2AB" d="M31.371,4.584H12.629c-1.93,0-3.508,1.578-3.508,3.507v27.817c0,1.928,1.578,3.508,3.508,3.508h18.742
			c1.931,0,3.508-1.58,3.508-3.508V8.091C34.879,6.162,33.302,4.584,31.371,4.584 M18.404,34.078h-3.602V30.48h3.602V34.078z
			 M18.404,28.678h-3.602v-3.596h3.602V28.678z M18.404,23.279h-3.602v-3.598h3.602V23.279z M23.805,34.078h-3.602V30.48h3.602
			V34.078z M23.805,28.678h-3.602v-3.596h3.602V28.678z M23.805,23.279h-3.602v-3.598h3.602V23.279z M29.204,34.078h-3.601V30.48
			h3.601V34.078z M29.204,28.678h-3.601v-3.596h3.601V28.678z M29.204,23.279h-3.601v-3.598h3.601V23.279z M29.204,16.675H14.805
			v-6.388h14.399V16.675z"/>
		<rect x="16.628" y="11.987" fill="#A0A2AB" width="2.188" height="3"/>
	</g>
	<g display="inline">
		<g>
			<path fill="#808081" d="M31.371,4.584H12.629c-1.93,0-3.508,1.578-3.508,3.507v27.817c0,1.928,1.578,3.508,3.508,3.508h18.742
				c1.931,0,3.508-1.58,3.508-3.508V8.091C34.879,6.162,33.302,4.584,31.371,4.584 M18.404,34.078h-3.602V30.48h3.602V34.078z
				 M18.404,28.678h-3.602v-3.596h3.602V28.678z M18.404,23.279h-3.602v-3.598h3.602V23.279z M23.805,34.078h-3.602V30.48h3.602
				V34.078z M23.805,28.678h-3.602v-3.596h3.602V28.678z M23.805,23.279h-3.602v-3.598h3.602V23.279z M29.204,34.078h-3.601V30.48
				h3.601V34.078z M29.204,28.678h-3.601v-3.596h3.601V28.678z M29.204,23.279h-3.601v-3.598h3.601V23.279z M29.204,16.675H14.805
				v-6.388h14.399V16.675z"/>
			<rect x="16.628" y="11.987" fill="#808081" width="2.188" height="3"/>
		</g>
	</g>
</g>
<g id="Layer_4" display="none">
	<g display="inline">
		<path fill="#A0A2AB" d="M40.934,18.771c-0.271-1.01-1.365-1.617-2.438-1.355l-1.475,0.355c-1.312-3.356-2.961-6.972-2.961-6.972
			C33.309,8.986,30.812,7.5,28.748,7.5h-6.715H22h-6.716c-2.063,0-4.559,1.486-5.311,3.299c0,0-1.648,3.616-2.961,6.972l-1.505-0.37
			c-1.073-0.263-2.167,0.344-2.442,1.354c-0.279,1.009,0.364,2.04,1.435,2.303l1.245,0.307c-0.101,0.348-0.19,0.675-0.244,0.948
			c-0.328,1.643-0.397,5.335-0.397,8.028c0,0-0.002,0.002-0.002,0.005v4.385c0,0.974,0.845,1.771,1.88,1.771h2.503
			c1.033,0,1.878-0.798,1.878-1.771v-1.254H22h0.033h10.636v1.254c0,0.974,0.847,1.771,1.879,1.771h2.503
			c1.035,0,1.881-0.798,1.881-1.771v-4.385c0-0.003-0.004-0.005-0.004-0.005c0-2.692-0.068-6.386-0.396-8.028
			c-0.054-0.272-0.144-0.6-0.244-0.948l1.213-0.292C40.572,20.81,41.215,19.78,40.934,18.771 M13.717,12.789
			c0.354-0.895,1.47-1.626,2.482-1.626H22h0.033h5.8c1.011,0,2.127,0.731,2.481,1.626l1.595,4.042h-9.876H22h-9.877L13.717,12.789z
			 M22.018,23.669c-0.007-0.002-0.012-0.002-0.018-0.002v0.004c-0.002,0.002-0.003,0.002-0.005,0.002
			c-1.077-0.071-1.929-0.907-1.929-1.942c0-1.035,0.852-1.872,1.929-1.945c0.002,0,0.003,0,0.005,0v0.006
			c0.006-0.001,0.011-0.002,0.018-0.003c0.004,0.001,0.009,0.002,0.015,0.003v-0.006c0.002,0,0.003,0,0.005,0
			c1.076,0.073,1.929,0.91,1.929,1.945c0,1.035-0.853,1.871-1.929,1.942c-0.002,0-0.003,0-0.005-0.002v-0.004
			C22.027,23.667,22.022,23.667,22.018,23.669 M11.596,28.898c-0.224,0.121-0.468,0.211-0.743,0.211
			c-0.468,0-0.872-0.217-1.147-0.536c-0.206-0.241-0.35-0.537-0.35-0.873c0-0.781,0.671-1.411,1.497-1.411s1.495,0.63,1.495,1.411
			C12.347,28.216,12.036,28.65,11.596,28.898 M9.738,23.7c-0.687,0-1.251-0.532-1.251-1.181v-0.056c0-0.15,0.021-0.315,0.048-0.482
			c0.094-0.559,0.323-1.167,0.596-1.508c0.356-0.445,1.178-0.64,1.83-0.431l0.818,0.26l2.926,0.933
			c0.651,0.208,1.187,0.848,1.187,1.421c0,0.569-0.564,1.041-1.252,1.041L9.738,23.7L9.738,23.7z M26.652,29.451h-4.62H22h-4.621
			c-1.025,0-1.855-0.785-1.855-1.751c0-0.97,0.83-1.752,1.855-1.752H22h0.033h4.621c1.022,0,1.854,0.782,1.854,1.752
			C28.509,28.666,27.678,29.451,26.652,29.451 M34.327,28.573c-0.274,0.319-0.679,0.536-1.147,0.536
			c-0.275,0-0.521-0.09-0.744-0.211c-0.438-0.248-0.75-0.685-0.75-1.198c0-0.781,0.668-1.411,1.494-1.411s1.497,0.63,1.497,1.411
			C34.677,28.036,34.533,28.332,34.327,28.573 M35.546,22.52c0,0.648-0.563,1.183-1.251,1.183h-4.902
			c-0.688,0-1.252-0.472-1.252-1.041c0-0.574,0.535-1.213,1.188-1.421l2.926-0.933l0.819-0.26c0.65-0.208,1.473-0.014,1.828,0.431
			c0.271,0.342,0.502,0.949,0.598,1.508c0.025,0.167,0.048,0.332,0.048,0.482L35.546,22.52L35.546,22.52z"/>
	</g>
	<g display="inline">
		<g>
			<path fill="#727782" d="M40.934,18.771c-0.271-1.01-1.365-1.617-2.438-1.355l-1.475,0.355c-1.312-3.356-2.961-6.972-2.961-6.972
				C33.309,8.986,30.812,7.5,28.748,7.5h-6.715H22h-6.716c-2.063,0-4.559,1.486-5.311,3.299c0,0-1.648,3.616-2.961,6.972
				l-1.505-0.37c-1.073-0.263-2.167,0.344-2.442,1.354c-0.279,1.009,0.364,2.04,1.435,2.303l1.245,0.307
				c-0.101,0.348-0.19,0.675-0.244,0.948c-0.328,1.643-0.397,5.335-0.397,8.028c0,0-0.002,0.002-0.002,0.005v4.385
				c0,0.974,0.845,1.771,1.88,1.771h2.503c1.033,0,1.878-0.798,1.878-1.771v-1.254H22h0.033h10.636v1.254
				c0,0.974,0.847,1.771,1.879,1.771h2.503c1.035,0,1.881-0.798,1.881-1.771v-4.385c0-0.003-0.004-0.005-0.004-0.005
				c0-2.692-0.068-6.386-0.396-8.028c-0.054-0.272-0.144-0.6-0.244-0.948l1.213-0.292C40.572,20.81,41.215,19.78,40.934,18.771
				 M13.717,12.789c0.354-0.895,1.47-1.626,2.482-1.626H22h0.033h5.8c1.011,0,2.127,0.731,2.481,1.626l1.595,4.042h-9.876H22h-9.877
				L13.717,12.789z M22.018,23.669c-0.007-0.002-0.012-0.002-0.018-0.002v0.004c-0.002,0.002-0.003,0.002-0.005,0.002
				c-1.077-0.071-1.929-0.907-1.929-1.942c0-1.035,0.852-1.872,1.929-1.945c0.002,0,0.003,0,0.005,0v0.006
				c0.006-0.001,0.011-0.002,0.018-0.003c0.004,0.001,0.009,0.002,0.015,0.003v-0.006c0.002,0,0.003,0,0.005,0
				c1.076,0.073,1.929,0.91,1.929,1.945c0,1.035-0.853,1.871-1.929,1.942c-0.002,0-0.003,0-0.005-0.002v-0.004
				C22.027,23.667,22.022,23.667,22.018,23.669 M11.596,28.898c-0.224,0.121-0.468,0.211-0.743,0.211
				c-0.468,0-0.872-0.217-1.147-0.536c-0.206-0.241-0.35-0.537-0.35-0.873c0-0.781,0.671-1.411,1.497-1.411s1.495,0.63,1.495,1.411
				C12.347,28.216,12.036,28.65,11.596,28.898 M9.738,23.7c-0.687,0-1.251-0.532-1.251-1.181v-0.056c0-0.15,0.021-0.315,0.048-0.482
				c0.094-0.559,0.323-1.167,0.596-1.508c0.356-0.445,1.178-0.64,1.83-0.431l0.818,0.26l2.926,0.933
				c0.651,0.208,1.187,0.848,1.187,1.421c0,0.569-0.564,1.041-1.252,1.041L9.738,23.7L9.738,23.7z M26.652,29.451h-4.62H22h-4.621
				c-1.025,0-1.855-0.785-1.855-1.751c0-0.97,0.83-1.752,1.855-1.752H22h0.033h4.621c1.022,0,1.854,0.782,1.854,1.752
				C28.509,28.666,27.678,29.451,26.652,29.451 M34.327,28.573c-0.274,0.319-0.679,0.536-1.147,0.536
				c-0.275,0-0.521-0.09-0.744-0.211c-0.438-0.248-0.75-0.685-0.75-1.198c0-0.781,0.668-1.411,1.494-1.411s1.497,0.63,1.497,1.411
				C34.677,28.036,34.533,28.332,34.327,28.573 M35.546,22.52c0,0.648-0.563,1.183-1.251,1.183h-4.902
				c-0.688,0-1.252-0.472-1.252-1.041c0-0.574,0.535-1.213,1.188-1.421l2.926-0.933l0.819-0.26c0.65-0.208,1.473-0.014,1.828,0.431
				c0.271,0.342,0.502,0.949,0.598,1.508c0.025,0.167,0.048,0.332,0.048,0.482L35.546,22.52L35.546,22.52z"/>
		</g>
	</g>
</g>
<g>
	<path fill="#BCBCBD" d="M17.733,22.054c0,2.356,1.909,4.264,4.266,4.264c2.354,0,4.265-1.908,4.265-4.264s-1.911-4.267-4.265-4.267
		C19.642,17.787,17.733,19.698,17.733,22.054"/>
	<path fill="#BCBCBD" d="M38.24,24.854c0.691-0.293,1.259-1.15,1.259-1.902v-1.907c0-0.752-0.567-1.611-1.259-1.905l-2.116-0.903
		c-0.693-0.294-1.362-0.803-1.486-1.128c-0.123-0.327-0.279-1.726,0.003-2.424l0.863-2.146c0.279-0.698,0.075-1.705-0.456-2.237
		l-1.351-1.351c-0.531-0.533-1.538-0.739-2.235-0.458l-2.178,0.877c-0.699,0.281-1.521,0.397-1.827,0.256
		c-0.307-0.14-1.387-1.019-1.681-1.712l-0.92-2.155c-0.294-0.692-1.15-1.258-1.903-1.258h-1.909c-0.752,0-1.61,0.566-1.905,1.258
		l-0.917,2.154c-0.294,0.693-0.794,1.357-1.114,1.477c-0.318,0.122-1.699,0.261-2.398-0.021l-2.173-0.875
		c-0.697-0.28-1.705-0.075-2.236,0.458l-1.35,1.349c-0.532,0.533-0.737,1.54-0.456,2.237l0.861,2.145
		c0.282,0.698,0.392,1.528,0.247,1.843c-0.147,0.316-1.039,1.421-1.73,1.716L5.76,19.14C5.067,19.436,4.5,20.293,4.5,21.046v1.907
		c-0.002,0.754,0.565,1.611,1.258,1.902l2.069,0.885c0.691,0.295,1.361,0.814,1.488,1.158c0.128,0.34,0.298,1.783,0.016,2.48
		l-0.836,2.082c-0.281,0.697-0.076,1.705,0.456,2.236l1.348,1.35c0.531,0.531,1.539,0.738,2.236,0.457l2.053-0.824
		c0.699-0.281,1.548-0.383,1.886-0.225c0.338,0.158,1.509,1.066,1.804,1.758l0.862,2.023c0.293,0.695,1.151,1.26,1.904,1.26h1.91
		c0.751,0,1.608-0.564,1.901-1.26l0.865-2.023c0.294-0.693,0.825-1.367,1.174-1.5c0.353-0.133,1.815-0.318,2.514-0.037l2.054,0.824
		c0.697,0.283,1.705,0.076,2.236-0.455l1.35-1.348c0.531-0.531,0.735-1.539,0.456-2.236l-0.843-2.092
		c-0.28-0.697-0.385-1.537-0.234-1.867c0.15-0.326,1.048-1.469,1.739-1.764L38.24,24.854z M29.735,22.054
		c0,4.272-3.464,7.737-7.736,7.737c-4.274,0-7.739-3.465-7.739-7.737c0-4.274,3.465-7.738,7.739-7.738
		C26.271,14.316,29.735,17.78,29.735,22.054"/>
</g>
</svg>
