<?xml version="1.0" encoding="utf-8"?>
<!-- Generator: Adobe Illustrator 15.0.0, SVG Export Plug-In . SVG Version: 6.00 Build 0)  -->
<!DOCTYPE svg PUBLIC "-//W3C//DTD SVG 1.1//EN" "http://www.w3.org/Graphics/SVG/1.1/DTD/svg11.dtd">
<svg version="1.1" id="Layer_1" xmlns="http://www.w3.org/2000/svg" xmlns:xlink="http://www.w3.org/1999/xlink" x="0px" y="0px"
	 width="15px" height="15px" viewBox="0 0 15 15" enable-background="new 0 0 15 15" xml:space="preserve">
<g>
	<path fill="#FFFFFF" d="M4.382,3.085C4.12,3.24,3.66,3.323,3.36,3.269L2.544,3.121c-0.3-0.054-0.67,0.117-0.823,0.381L1.22,4.363
		c-0.153,0.264-0.119,0.67,0.077,0.904l0.527,0.63C2.02,6.13,2.18,6.571,2.18,6.876l0.001,1.249
		c0.001,0.306-0.158,0.748-0.353,0.981L1.301,9.74c-0.194,0.233-0.229,0.641-0.074,0.902l0.503,0.859
		c0.154,0.264,0.525,0.436,0.824,0.38l0.815-0.15c0.299-0.054,0.761,0.024,1.025,0.176l1.009,0.582
		C5.668,12.641,5.969,13,6.073,13.288l0.281,0.775c0.104,0.285,0.438,0.521,0.743,0.521h0.997c0.304,0,0.639-0.236,0.743-0.521
		l0.281-0.775C9.223,13,9.524,12.643,9.79,12.495l0.923-0.52c0.266-0.15,0.728-0.226,1.027-0.172l0.858,0.156
		c0.3,0.054,0.672-0.116,0.823-0.38l0.607-1.043c0.154-0.264,0.118-0.672-0.078-0.905l-0.56-0.665
		c-0.195-0.236-0.355-0.676-0.355-0.979l-0.002-1.001c0-0.305,0.158-0.746,0.354-0.979l0.558-0.669
		c0.196-0.234,0.229-0.64,0.076-0.903L13.41,3.392c-0.154-0.262-0.525-0.432-0.825-0.377l-0.857,0.159
		c-0.3,0.055-0.761-0.023-1.026-0.175L9.907,2.544c-0.266-0.152-0.565-0.51-0.669-0.797L8.94,0.927
		C8.839,0.642,8.503,0.407,8.199,0.407H6.993c-0.306,0-0.639,0.235-0.742,0.521L5.955,1.747C5.852,2.033,5.552,2.395,5.291,2.55
		L4.382,3.085z M7.594,10.421c-1.616,0-2.925-1.309-2.925-2.926c0-1.616,1.309-2.926,2.925-2.926c1.618,0,2.927,1.31,2.927,2.926
		C10.521,9.112,9.212,10.421,7.594,10.421z"/>
</g>
</svg>
