<?xml version="1.0" encoding="utf-8"?>
<!-- Generator: Adobe Illustrator 15.0.0, SVG Export Plug-In . SVG Version: 6.00 Build 0)  -->
<!DOCTYPE svg PUBLIC "-//W3C//DTD SVG 1.1//EN" "http://www.w3.org/Graphics/SVG/1.1/DTD/svg11.dtd">
<svg version="1.1" id="Layer_1" xmlns="http://www.w3.org/2000/svg" xmlns:xlink="http://www.w3.org/1999/xlink" x="0px" y="0px"
	 width="15px" height="15px" viewBox="0 0 15 15" enable-background="new 0 0 15 15" xml:space="preserve">
<g>
	<path fill="#FFFFFF" d="M13.114,5.528l-0.088,0.107c-0.136,0.167-0.264,0.41-0.36,0.663c-0.351-0.643-1.022-1.071-1.84-1.071
		c-0.507,0-0.954,0.165-1.305,0.448C9.015,4.983,8.196,4.525,7.273,4.525c-1.539,0-2.786,1.256-2.786,2.794
		c0,1.217,0.78,2.238,1.86,2.629c0.098,1.032,0.877,1.802,1.938,1.868h0.447v0.459h0.01c0.011,0.165,0.038,0.331,0.089,0.486
		c-0.089,0.138-0.177,0.282-0.216,0.409L8.577,13.26c-0.166,0.456-0.692,0.826-1.169,0.826H7.146c-0.478,0-1.003-0.37-1.168-0.826
		l-0.04-0.089c-0.165-0.447-0.632-1.022-1.051-1.257l-0.36-0.213C4.108,11.467,3.378,11.34,2.9,11.429l-0.087,0.019
		c-0.477,0.088-1.062-0.185-1.305-0.604L1.372,10.62c-0.243-0.408-0.185-1.051,0.117-1.421l0.058-0.078
		c0.312-0.37,0.565-1.061,0.565-1.548V7.076c0-0.477-0.253-1.178-0.565-1.548L1.489,5.46c-0.312-0.371-0.36-1.013-0.117-1.431
		l0.126-0.214c0.244-0.418,0.828-0.691,1.296-0.604L2.891,3.22c0.477,0.088,1.207-0.039,1.616-0.282L4.78,2.783
		c0.409-0.253,0.886-0.818,1.052-1.276L5.87,1.38c0.166-0.448,0.692-0.827,1.179-0.827h0.458c0.478,0,1.013,0.379,1.178,0.827
		l0.039,0.126c0.166,0.458,0.643,1.022,1.061,1.266L9.939,2.86c0.42,0.233,1.149,0.36,1.626,0.272l0.127-0.029
		c0.478-0.088,1.061,0.185,1.304,0.603l0.234,0.39C13.475,4.516,13.425,5.158,13.114,5.528z"/>
	<path fill="#FFFFFF" d="M13.25,10.727h-0.126c-1.159-0.01-1.295-0.038-1.306,0.789v0.623c-0.009,1.296-1.986,1.285-1.986,0v-0.301
		c0-1.188-0.01-1.111-1.411-1.111H8.402c-0.488,0-0.799-0.282-0.917-0.632C7.283,9.51,7.583,8.741,8.392,8.741h0.029
		c1.519,0,1.411,0.107,1.411-1.422V7.3c0-0.233,0.078-0.409,0.176-0.555c0.478-0.691,1.811-0.516,1.811,0.555v0.03
		c0,1.382-0.078,1.412,1.042,1.412v-0.01h0.39C14.535,8.741,14.545,10.717,13.25,10.727z"/>
</g>
</svg>
