<?xml version="1.0" encoding="utf-8"?>
<!-- Generator: Adobe Illustrator 15.0.0, SVG Export Plug-In . SVG Version: 6.00 Build 0)  -->
<!DOCTYPE svg PUBLIC "-//W3C//DTD SVG 1.1//EN" "http://www.w3.org/Graphics/SVG/1.1/DTD/svg11.dtd">
<svg version="1.1" id="Layer_1" xmlns="http://www.w3.org/2000/svg" xmlns:xlink="http://www.w3.org/1999/xlink" x="0px" y="0px"
	 width="27px" height="27px" viewBox="0 0 27 27" enable-background="new 0 0 27 27" xml:space="preserve">
<path fill="#FFFFFF" d="M23.242,22.057l-2.51-3.27c1.536-1.741,2.477-4.02,2.477-6.519c0-5.444-4.43-9.875-9.875-9.875
	c-5.444,0-9.875,4.431-9.875,9.875s4.431,9.875,9.875,9.875c1.504,0,2.924-0.348,4.201-0.951l2.533,3.3
	c0.395,0.513,0.987,0.781,1.588,0.781c0.426,0,0.854-0.135,1.217-0.414C23.748,24.188,23.914,22.932,23.242,22.057z M6.959,12.269
	c0-3.515,2.859-6.375,6.375-6.375c3.517,0,6.375,2.86,6.375,6.375s-2.858,6.375-6.375,6.375C9.818,18.644,6.959,15.783,6.959,12.269
	z"/>
</svg>
