<?xml version="1.0" encoding="utf-8"?>
<!-- Generator: Adobe Illustrator 15.0.0, SVG Export Plug-In . SVG Version: 6.00 Build 0)  -->
<!DOCTYPE svg PUBLIC "-//W3C//DTD SVG 1.1//EN" "http://www.w3.org/Graphics/SVG/1.1/DTD/svg11.dtd">
<svg version="1.1" id="Layer_1" xmlns="http://www.w3.org/2000/svg" xmlns:xlink="http://www.w3.org/1999/xlink" x="0px" y="0px"
	 width="15px" height="15px" viewBox="0 0 15 15" enable-background="new 0 0 15 15" xml:space="preserve">
<g>
	<path fill="#FFFFFF" d="M13.5,4.113C13.059,4.308,12.584,4.44,12.085,4.5c0.511-0.304,0.899-0.786,1.083-1.361
		c-0.477,0.282-1.002,0.487-1.562,0.597c-0.449-0.479-1.09-0.778-1.797-0.778c-1.359,0-2.461,1.103-2.461,2.461
		c0,0.193,0.021,0.381,0.063,0.562C5.364,5.878,3.55,4.898,2.336,3.409C2.124,3.773,2.002,4.196,2.002,4.647
		c0,0.854,0.435,1.607,1.095,2.048C2.693,6.683,2.314,6.572,1.982,6.388c0,0.01,0,0.021,0,0.031c0,1.193,0.849,2.188,1.975,2.415
		C3.75,8.889,3.533,8.918,3.309,8.918c-0.159,0-0.313-0.016-0.464-0.043c0.314,0.979,1.223,1.689,2.3,1.71
		c-0.843,0.66-1.904,1.054-3.058,1.054c-0.199,0-0.395-0.012-0.587-0.035c1.089,0.698,2.383,1.106,3.773,1.106
		c4.528,0,7.004-3.751,7.004-7.005c0-0.106-0.002-0.212-0.008-0.318C12.752,5.04,13.17,4.606,13.5,4.113"/>
</g>
</svg>
