<?xml version="1.0" encoding="utf-8"?>
<!-- Generator: Adobe Illustrator 15.0.0, SVG Export Plug-In . SVG Version: 6.00 Build 0)  -->
<!DOCTYPE svg PUBLIC "-//W3C//DTD SVG 1.1//EN" "http://www.w3.org/Graphics/SVG/1.1/DTD/svg11.dtd">
<svg version="1.1" id="Layer_1" xmlns="http://www.w3.org/2000/svg" xmlns:xlink="http://www.w3.org/1999/xlink" x="0px" y="0px"
	 width="15px" height="15px" viewBox="0 0 15 15" enable-background="new 0 0 15 15" xml:space="preserve">
<g>
	<path fill="#A0A2AB" d="M6.271,7.097c0-0.796,1.75-1.027,1.75-2.896c0-1.122-0.104-1.797-0.987-2.195
		c0-0.278,1.559-0.096,1.559-0.615H5.178c0,0-3.457,0.085-3.457,3.012c0,2.927,3.023,2.587,3.023,2.587v0.743
		c0,0.3,0.406,0.199,0.456,0.806c-0.204,0-4.2-0.105-4.2,2.545s3.521,2.523,3.521,2.523s4.073,0.186,4.073-3.107
		C8.594,8.529,6.271,7.892,6.271,7.097 M3.321,4.573C3.002,3.398,3.423,2.26,4.261,2.031c0.84-0.229,1.779,0.54,2.1,1.714
		C6.68,4.921,6.259,6.06,5.419,6.288S3.64,5.748,3.321,4.573 M5.07,12.76c-1.41,0.098-2.609-0.658-2.678-1.688
		c-0.07-1.027,1.016-1.938,2.425-2.033c1.41-0.096,2.608,0.66,2.679,1.688C7.566,11.756,6.479,12.666,5.07,12.76"/>
	<polygon fill="#A0A2AB" points="15,3.768 15,4.468 12.623,4.468 12.623,6.842 11.922,6.842 11.922,4.468 9.549,4.468 9.549,3.768 
		11.922,3.768 11.922,1.391 12.623,1.391 12.623,3.768 	"/>
</g>
</svg>
