<?xml version="1.0" encoding="utf-8"?>
<!-- Generator: Adobe Illustrator 15.0.0, SVG Export Plug-In . SVG Version: 6.00 Build 0)  -->
<!DOCTYPE svg PUBLIC "-//W3C//DTD SVG 1.1//EN" "http://www.w3.org/Graphics/SVG/1.1/DTD/svg11.dtd">
<svg version="1.1" id="Layer_1" xmlns="http://www.w3.org/2000/svg" xmlns:xlink="http://www.w3.org/1999/xlink" x="0px" y="0px"
	 width="27px" height="27px" viewBox="0 0 27 27" enable-background="new 0 0 27 27" xml:space="preserve">
<path fill="#5E7899" d="M23.712,12.016h-0.729c-0.801,0-1.456,0.655-1.456,1.457v0.615l-1.711,0.006l-0.006-1.658
	c-0.002-0.534-0.388-1.179-0.857-1.434l-2.249-1.221c-0.469-0.254-1.289-0.46-1.823-0.458l-1.273,0.005l-0.004-1.23h1.181
	c0.535,0,0.972-0.437,0.972-0.971V6.971C15.757,6.437,15.32,6,14.785,6H9.612C9.077,6,8.641,6.437,8.641,6.971v0.155
	c0,0.534,0.437,0.971,0.971,0.971h1.235l0.004,1.24L9.092,9.344C8.558,9.346,7.793,9.637,7.391,9.988l-1.018,0.894
	c-0.402,0.353-0.729,1.078-0.726,1.612l0.006,1.258l-1.389,0.005v-1.182c0-0.534-0.437-0.971-0.971-0.971H3.138
	c-0.534,0-0.971,0.437-0.971,0.971v5.177c0,0.533,0.437,0.971,0.971,0.971h0.156c0.534,0,0.971-0.438,0.971-0.971v-1.238
	l1.398-0.006l0.005,1.252c0.002,0.531,0.441,0.967,0.975,0.965l1.338-0.004c0.534-0.002,1.256,0.328,1.605,0.732l0.868,1.006
	c0.349,0.406,1.071,0.734,1.605,0.732l6.816-0.029c0.535-0.002,0.97-0.439,0.968-0.975l-0.007-1.678l1.691-0.008v0.629
	c0,0.805,0.655,1.457,1.456,1.457h0.729c0.799,0,1.456-0.652,1.456-1.457v-5.658C25.168,12.671,24.511,12.016,23.712,12.016
	 M14.971,15.174l-2.766,3.516c-0.388,0.494-0.625,0.389-0.525-0.229l0.251-1.58c0.099-0.617-0.324-1.223-0.939-1.348l-0.374-0.076
	c-0.615-0.121-0.791-0.617-0.391-1.1l1.696-2.043l1.111-1.336c0.399-0.482,0.603-0.38,0.45,0.227l-0.226,0.908l-0.091,0.362
	c-0.151,0.608,0.221,1.23,0.829,1.382l0.571,0.145C15.181,14.15,15.36,14.68,14.971,15.174"/>
</svg>
