<?xml version="1.0" encoding="utf-8"?>
<!-- Generator: Adobe Illustrator 15.0.0, SVG Export Plug-In . SVG Version: 6.00 Build 0)  -->
<!DOCTYPE svg PUBLIC "-//W3C//DTD SVG 1.1//EN" "http://www.w3.org/Graphics/SVG/1.1/DTD/svg11.dtd">
<svg version="1.1" id="Layer_1" xmlns="http://www.w3.org/2000/svg" xmlns:xlink="http://www.w3.org/1999/xlink" x="0px" y="0px"
	 width="15px" height="15px" viewBox="0 0 15 15" enable-background="new 0 0 15 15" xml:space="preserve">
<g>
	<path fill="#5E7899" d="M8.395,4.791c-0.311-0.311-0.815-0.311-1.126,0L2.855,9.203c-0.311,0.311-0.604,0.921-0.654,1.356
		l-0.196,1.703c-0.049,0.436,0.267,0.758,0.703,0.714l1.75-0.171c0.436-0.043,1.047-0.332,1.357-0.642l4.412-4.413
		c0.311-0.31,0.311-0.817,0-1.127L8.395,4.791z"/>
	<path fill="#5E7899" d="M12.768,4.084l-1.832-1.833c-0.312-0.31-0.818-0.31-1.129,0L9.385,2.673c-0.311,0.311-0.311,0.818,0,1.128
		l1.832,1.831c0.311,0.311,0.818,0.311,1.127,0l0.424-0.421C13.076,4.901,13.076,4.394,12.768,4.084"/>
</g>
</svg>
