<?xml version="1.0" encoding="utf-8"?>
<!-- Generator: Adobe Illustrator 15.0.0, SVG Export Plug-In . SVG Version: 6.00 Build 0)  -->
<!DOCTYPE svg PUBLIC "-//W3C//DTD SVG 1.1//EN" "http://www.w3.org/Graphics/SVG/1.1/DTD/svg11.dtd">
<svg version="1.1" id="Layer_1" xmlns="http://www.w3.org/2000/svg" xmlns:xlink="http://www.w3.org/1999/xlink" x="0px" y="0px"
	 width="44px" height="44px" viewBox="0 0 44 44" enable-background="new 0 0 44 44" xml:space="preserve">
<path fill="#FFFFFF" d="M7.569,22.901C6.642,24.044,7.086,25,8.556,25h4.246l0.005,9.567c0,0.734,0.603,1.325,1.338,1.325
	l5.136-0.008l-0.003-7.607c-0.001-0.245,0.201-0.448,0.445-0.448l4.691-0.009c0.246-0.001,0.446,0.199,0.447,0.444l0.003,7.612
	l5.141-0.003c0.736-0.001,1.337-0.582,1.337-1.317L31.335,25h4.277c1.471,0,1.915-0.954,0.987-2.097l-3.696-4.559l-0.004-9.06
	C32.899,8.548,32.296,8,31.562,8h-2.367c-0.735,0-1.336,0.546-1.336,1.28l0.002,2.874l-4.09-5.048
	c-0.928-1.142-2.445-1.042-3.372,0.1L7.569,22.901z"/>
</svg>
