<?xml version="1.0" encoding="utf-8"?>
<!-- Generator: Adobe Illustrator 15.0.0, SVG Export Plug-In . SVG Version: 6.00 Build 0)  -->
<!DOCTYPE svg PUBLIC "-//W3C//DTD SVG 1.1//EN" "http://www.w3.org/Graphics/SVG/1.1/DTD/svg11.dtd">
<svg version="1.1" id="Layer_1" xmlns="http://www.w3.org/2000/svg" xmlns:xlink="http://www.w3.org/1999/xlink" x="0px" y="0px"
	 width="44px" height="44px" viewBox="0 0 44 44" enable-background="new 0 0 44 44" xml:space="preserve">
<g>
	<path fill="#138BC8" d="M32.368,5.999h-8.799c-1.243,0-2.26,1.018-2.26,2.261v6.618h-8.935c-1.243,0-2.26,1.017-2.26,2.26v16.602
		c0,1.243,1.017,2.261,2.26,2.261h0.237v-0.005h2.002c0.208,0,0.377-0.169,0.377-0.377v-8.256l5.272-0.006v8.262
		c0,0.208,0.169,0.377,0.376,0.377h1.076V36h10.652c1.243,0,2.26-1.018,2.26-2.261v-8.878v-7.724V8.26
		C34.628,7.017,33.611,5.999,32.368,5.999 M19.877,23.729h-4.521v-4.52h4.521V23.729z M25.81,11.063h4.521v3.814v0.706H25.81v-0.706
		V11.063z M25.81,19.21h4.521v4.52H25.81V19.21z M30.33,31.875H25.81v-4.521h4.521V31.875z"/>
</g>
</svg>
