<?xml version="1.0" encoding="utf-8"?>
<!-- Generator: Adobe Illustrator 15.0.0, SVG Export Plug-In . SVG Version: 6.00 Build 0)  -->
<!DOCTYPE svg PUBLIC "-//W3C//DTD SVG 1.1//EN" "http://www.w3.org/Graphics/SVG/1.1/DTD/svg11.dtd">
<svg version="1.1" id="Layer_1" xmlns="http://www.w3.org/2000/svg" xmlns:xlink="http://www.w3.org/1999/xlink" x="0px" y="0px"
	 width="44px" height="44px" viewBox="0 0 44 44" enable-background="new 0 0 44 44" xml:space="preserve">
<path fill="#FFFFFF" d="M29.2,1H14.801c-2.209,0-4.018,1.809-4.018,4.019v27.964c0,2.21,1.809,4.019,4.018,4.019H29.2
	c2.211,0,4.018-1.809,4.018-4.019V5.019C33.218,2.809,31.411,1,29.2,1z M21.738,34.007c-0.938,0-1.699-0.763-1.699-1.703
	c0-0.939,0.762-1.702,1.699-1.702c0.942,0,1.703,0.763,1.703,1.702C23.441,33.244,22.681,34.007,21.738,34.007z M29.434,28.131
	H14.565V6.884h14.868V28.131z"/>
</svg>
