<?xml version="1.0" encoding="utf-8"?>
<!-- Generator: Adobe Illustrator 15.0.0, SVG Export Plug-In . SVG Version: 6.00 Build 0)  -->
<!DOCTYPE svg PUBLIC "-//W3C//DTD SVG 1.1//EN" "http://www.w3.org/Graphics/SVG/1.1/DTD/svg11.dtd">
<svg version="1.1" xmlns="http://www.w3.org/2000/svg" xmlns:xlink="http://www.w3.org/1999/xlink" x="0px" y="0px" width="27px"
	 height="27px" viewBox="0 0 27 27" enable-background="new 0 0 27 27" xml:space="preserve">
<g id="Layer_2" display="none">
	<rect display="inline" fill="none" width="27" height="27"/>
	<g display="inline">
		<path fill="#D7D7D7" d="M14.637,25.445c-0.274,0-0.539-0.105-0.732-0.293c-0.311-0.301-7.613-7.404-7.613-12.464
			c0-4.439,3.744-8.051,8.345-8.051c4.6,0,8.343,3.612,8.343,8.051c0,5.06-7.299,12.163-7.609,12.464
			C15.177,25.34,14.911,25.445,14.637,25.445 M14.637,6.637c-3.458,0-6.273,2.715-6.273,6.051c0,3.13,4.021,7.966,6.273,10.312
			c2.252-2.346,6.271-7.182,6.271-10.312C20.907,9.353,18.094,6.637,14.637,6.637"/>
		<path fill="#D7D7D7" d="M14.637,14.826c-1.229,0-2.223-0.991-2.223-2.216c0-1.227,0.994-2.221,2.223-2.221
			c1.225,0,2.22,0.994,2.22,2.221C16.856,13.835,15.861,14.826,14.637,14.826"/>
	</g>
	<g display="inline">
		<path fill="#B5B5B5" d="M14.637,25.445c-0.274,0-0.539-0.105-0.732-0.293c-0.311-0.301-7.613-7.404-7.613-12.464
			c0-4.439,3.744-8.051,8.345-8.051c4.6,0,8.343,3.612,8.343,8.051c0,5.06-7.299,12.163-7.609,12.464
			C15.177,25.34,14.911,25.445,14.637,25.445 M14.637,6.637c-3.458,0-6.273,2.715-6.273,6.051c0,3.13,4.021,7.966,6.273,10.312
			c2.252-2.346,6.271-7.182,6.271-10.312C20.907,9.353,18.094,6.637,14.637,6.637"/>
		<path fill="#B5B5B5" d="M14.637,14.826c-1.229,0-2.223-0.991-2.223-2.216c0-1.227,0.994-2.221,2.223-2.221
			c1.225,0,2.22,0.994,2.22,2.221C16.856,13.835,15.861,14.826,14.637,14.826"/>
	</g>
</g>
<g id="Layer_3">
	<g>
		<path fill="#D7D7D7" d="M13.229,23.846c-0.551,0-1.07-0.216-1.458-0.604l-7.198-7.198c-0.804-0.804-0.804-2.111,0-2.916
			l7.932-7.936c0.586-0.586,1.612-1.041,2.438-1.081l7.049-0.348h0.011c0.638,0,1.142,0.21,1.515,0.592
			c0.374,0.384,0.573,0.896,0.562,1.441l-0.161,6.811c-0.021,0.836-0.463,1.87-1.056,2.463l-8.173,8.171
			C14.301,23.63,13.782,23.846,13.229,23.846 M22.015,5.827l-6.969,0.342c-0.314,0.016-0.86,0.258-1.083,0.479l-7.932,7.936
			l7.198,7.198l0,0c0.002,0,0.003,0,0.003-0.002l8.172-8.169c0.212-0.211,0.443-0.753,0.451-1.053L22.015,5.827z"/>
		<path fill="#D7D7D7" d="M17.873,11.721c0.981-0.002,1.781-0.8,1.781-1.783c0-0.981-0.8-1.779-1.783-1.779
			c-0.979,0-1.778,0.797-1.778,1.781C16.093,10.921,16.893,11.719,17.873,11.721"/>
	</g>
</g>
<g id="Layer_1">
</g>
</svg>
