<?xml version="1.0" encoding="utf-8"?>
<!-- Generator: Adobe Illustrator 15.0.0, SVG Export Plug-In . SVG Version: 6.00 Build 0)  -->
<!DOCTYPE svg PUBLIC "-//W3C//DTD SVG 1.1//EN" "http://www.w3.org/Graphics/SVG/1.1/DTD/svg11.dtd">
<svg version="1.1" id="Layer_1" xmlns="http://www.w3.org/2000/svg" xmlns:xlink="http://www.w3.org/1999/xlink" x="0px" y="0px"
	 width="15px" height="15px" viewBox="0 0 15 15" enable-background="new 0 0 15 15" xml:space="preserve">
<path fill="#A0A0A0" d="M12.24,1.608H9.822V1.517C9.822,0.682,9.142,0,8.307,0H6.692C5.857,0,5.176,0.682,5.176,1.517v0.091H2.758
	c-0.834,0-1.517,0.684-1.517,1.517v2.418h1.562l0.652,7.944C3.524,14.32,4.262,15,5.096,15h4.986c0.833,0,1.572-0.68,1.64-1.513
	l0.652-7.944h1.384V3.125C13.758,2.292,13.075,1.608,12.24,1.608 M6.784,12.346c0,0.419-0.34,0.758-0.759,0.758
	s-0.758-0.339-0.758-0.758V6.278c0-0.377,0.281-0.678,0.645-0.735C5.95,5.538,5.985,5.521,6.025,5.521
	c0.04,0,0.074,0.018,0.113,0.023C6.501,5.6,6.784,5.901,6.784,6.278V12.346z M9.88,12.408c0,0.42-0.34,0.759-0.758,0.759
	s-0.76-0.339-0.76-0.759V6.342c0-0.418,0.342-0.758,0.76-0.758S9.88,5.924,9.88,6.342V12.408z"/>
</svg>
